<?xml version="1.0" encoding="utf-8"?>
<svg version="1.1" xmlns:xlink="http://www.w3.org/1999/xlink" width="18px" height="23px" xmlns="http://www.w3.org/2000/svg">
  <g transform="matrix(1 0 0 1 -252 -771 )">
    <path d="M 16.10823105 22.8906000818182  C 15.5305324125 23.1128900636364  14.8656393 22.9901442909091  14.4232367625 22.57953355  L 9.90612165375001 18.38181045  C 9.30215336625 17.8212449363636  8.3237237325 17.8212449363636  7.719755445 18.38181045  L 3.20264033625001 22.57953355  C 2.76023775375002 22.9901442909091  2.09534468625 23.1128900636364  1.517646024 22.8906000818182  C 0.939947357249988 22.6683101  0.563049962034761 22.1446985818182  0.5625 21.5636462363636  L 0.5625 2.39596069409091  C 0.5625 1.07270814454545  1.71682724249999 0  3.14076205124999 0  L 14.485115025 0  C 15.9090499125 0  17.0633770875 1.07270814454545  17 2.39596069409091  L 17 21.5636462363636  C 17.0628271875 22.1446985818182  16.6859298 22.6683101  16.10823105 22.8906000818182  Z M 15 20.74228205  L 15 2.39596069409091  C 15.1508770875 2.05426876318182  14.8528053 1.77727272727273  14.485115025 2  L 3.14076205124999 2  C 2.77307182124999 1.77727272727273  2.47499929125 2.05426876318182  2.47499929125 2.39596069409091  L 2.47499929125 20.74228205  L 6.36825543750001 17.1243070909091  C 7.71890847749999 15.8707158227273  9.90696862125001 15.8707158227273  11.258463375 17.1250887772727  L 15 20.74228205  Z M 8.77564825874999 4.18181818181818  C 8.94521397374999 4.18181818181818  9.10040324625001 4.27033854318182  9.17716438125001 4.41084399590909  L 10.0252264725 6.07491663  L 11.76187750875 6.24648488954545  C 11.936474775 6.26911122318182  12.0808071 6.38433624681818  12.1311959625 6.54132348909091  C 12.181584825 6.69831072090909  12.128762025 6.868184905  11.996032725 6.97599871181818  L 10.61511744375 8.03470041045454  L 11.0429009775 9.81315187727273  C 11.07654537375 9.97368412  11.00646723375 10.1377189804545  10.86349653 10.23309146  C 10.72052582625 10.3284639395455  10.5308678925 10.3376930659091  10.377960255 10.2567185968182  L 8.77489775999999 9.35145192636364  L 7.17333626249999 10.2567185968182  C 7.02042862500002 10.3376930659091  6.83077069125 10.3284639395455  6.68779998750001 10.23309146  C 6.54482928374998 10.1377189804545  6.47475115500001 9.97368412  6.50839554 9.81315187727273  L 6.93617907375001 8.03470041045454  L 5.55376281749999 6.97599871181818  C 5.42096220375 6.86799558363636  5.36829140250001 6.69785812272727  5.419030635 6.54078617772727  C 5.46976987875 6.38371424318182  5.61456565874999 6.26866315181818  5.78941900874999 6.24648488954545  L 7.52607004500001 6.07491663  L 8.37413213625 4.41084399590909  C 8.45089327125 4.27033854318182  8.60608254374999 4.18181818181818  8.77564825874999 4.18181818181818  Z " fill-rule="nonzero" fill="#8e8e93" stroke="none" transform="matrix(1 0 0 1 252 771 )" />
  </g>
</svg>