<?xml version="1.0" encoding="utf-8"?>
<svg version="1.1" xmlns:xlink="http://www.w3.org/1999/xlink" width="26px" height="23px" xmlns="http://www.w3.org/2000/svg">
  <g transform="matrix(1 0 0 1 -145 -771 )">
    <path d="M 18.3430706521739 0.8984375  C 18.3430706521739 0.402230468227273  18.7779966173913 0  19.3145380434783 0  C 19.8510794695652 0  20.2860054347826 0.402230468227273  20.2860054347826 0.8984375  L 20.2860054347826 1.796875  L 21.5489130434783 1.796875  C 23.6915815217391 1.796875  25.4347826086957 3.40903125  25.4347826086957 5.390625  L 25.4347826086957 10.51171875  C 25.4347826086957 11.0079257681818  24.9998566434783 11.41015625  24.4633152173913 11.41015625  C 23.9267737913044 11.41015625  23.491847826087 11.0079257681818  23.491847826087 10.51171875  L 23.491847826087 5.390625  C 23.491847826087 4.399828125  22.620247226087 3.59375  21.5489130434783 3.59375  L 20.2860054347826 3.59375  L 20.2860054347826 4.4921875  C 20.2860054347826 4.98839452863636  19.8510794695652 5.390625  19.3145380434783 5.390625  C 18.7779966173913 5.390625  18.3430706521739 4.98839452863636  18.3430706521739 4.4921875  L 18.3430706521739 3.59375  L 13.9228939652174 3.59375  L 13.9228939652174 4.4921875  C 13.9228939652174 4.98839452863636  13.4879681130435 5.390625  12.951426573913 5.390625  C 12.4148851478261 5.390625  11.9799591826087 4.98839452863636  11.9799591826087 4.4921875  L 11.9799591826087 3.59375  L 7.60835597826087 3.59375  L 7.60835597826087 4.4921875  C 7.60835597826087 4.98839452863636  7.17343002434783 5.390625  6.63688858695652 5.390625  C 6.10034714956521 5.390625  5.66542119565217 4.98839452863636  5.66542119565217 4.4921875  L 5.66542119565217 3.59375  L 4.45108695652174 3.59375  C 3.3797527173913 3.59375  2.50815217391304 4.399828125  3 5.390625  L 3 19.40625  C 2.50815217391304 20.3970468227273  3.3797527173913 21.203125  4.45108695652174 21.203125  L 11.8828125565218 21.203125  C 12.4193539826087 21.203125  12.8542799478261 21.6053554818182  12.8542799478261 22.1015625  C 12.8542799478261 22.5977695181818  12.4193539826087 23  11.8828125565218 23  L 4.45108695652174 23  C 2.30841847826085 23  0.565217391304348 21.38784375  1 19.40625  L 1 5.390625  C 0.565217391304348 3.40903125  2.30841847826085 1.796875  4.45108695652174 1.796875  L 5.66542119565217 1.796875  L 5.66542119565217 0.8984375  C 5.66542119565217 0.402230468227273  6.10034714956521 0  6.63688858695652 0  C 7.17343002434783 0  7.60835597826087 0.402230468227273  7.60835597826087 0.8984375  L 7.60835597826087 1.796875  L 11.9799591826087 1.796875  L 11.9799591826087 0.8984375  C 11.9799591826087 0.402230468227273  12.4148851478261 0  12.951426573913 0  C 13.4879681130435 0  13.9228939652174 0.402230468227273  13.9228939652174 0.8984375  L 13.9228939652174 1.796875  L 18.3430706521739 1.796875  L 18.3430706521739 0.8984375  Z M 13.680027173913 17.5644530727273  C 13.680027173913 14.5672655727273  16.3165896173913 12.12890625  19.5574048347826 12.12890625  C 22.7982201652174 12.12890625  25.4347826086957 14.5672655727273  25.4347826086957 17.5644530727273  C 25.4347826086957 20.5616406772727  22.7982201652174 23  19.5574048347826 23  C 16.3165896173913 23  13.680027173913 20.5616406772727  13.680027173913 17.5644530727273  Z M 23.491847826087 17.5644530727273  C 23.491847826087 15.5580625  21.7268372608696 13.92578125  19.5574048347826 13.92578125  C 17.3879725217391 13.92578125  15.6229619565217 15.5580625  15.6229619565217 17.5644530727273  C 15.6229619565217 19.57084375  17.3879725217391 21.203125  19.5574048347826 21.203125  C 21.7268372608696 21.203125  23.491847826087 19.57084375  23.491847826087 17.5644530727273  Z M 5.66542119565217 17.25  C 5.66542119565217 16.7538066772727  6.10036195826086 16.3515625  6.63688858695652 16.3515625  C 7.17341521565219 16.3515625  7.60835597826087 16.7538066772727  7.60835597826087 17.25  C 7.60835597826087 17.7461933227273  7.17341521565219 18.1484375  6.63688858695652 18.1484375  C 6.10036195826086 18.1484375  5.66542119565217 17.7461933227273  5.66542119565217 17.25  Z M 9.89130434782609 17.25  C 9.89130434782609 16.7538066772727  10.3262451104348 16.3515625  10.8627717391304 16.3515625  C 11.3992983678261 16.3515625  11.8342391304348 16.7538066772727  11.8342391304348 17.25  C 11.8342391304348 17.7461933227273  11.3992983678261 18.1484375  10.8627717391304 18.1484375  C 10.3262451104348 18.1484375  9.89130434782609 17.7461933227273  9.89130434782609 17.25  Z M 9.89130434782609 13.3417969272727  C 9.89130434782609 12.8456035  10.3262451104348 12.4433594272727  10.8627717391304 12.4433594272727  C 11.3992983678261 12.4433594272727  11.8342391304348 12.8456035  11.8342391304348 13.3417969272727  C 11.8342391304348 13.83799025  11.3992983678261 14.2402344272727  10.8627717391304 14.2402344272727  C 10.3262451104348 14.2402344272727  9.89130434782609 13.83799025  9.89130434782609 13.3417969272727  Z M 5.66542119565217 13.3417969272727  C 5.66542119565217 12.8456035  6.10036195826086 12.4433594272727  6.63688858695652 12.4433594272727  C 7.17341521565219 12.4433594272727  7.60835597826087 12.8456035  7.60835597826087 13.3417969272727  C 7.60835597826087 13.83799025  7.17341521565219 14.2402344272727  6.63688858695652 14.2402344272727  C 6.10036195826086 14.2402344272727  5.66542119565217 13.83799025  5.66542119565217 13.3417969272727  Z M 14.1171874434782 9.43359375  C 14.1171874434782 8.93740041681818  14.5521282173913 8.53515625  15.0886548347826 8.53515625  C 15.6251815652174 8.53515625  16.0601222260869 8.93740041681818  16.0601222260869 9.43359375  C 16.0601222260869 9.92978708318182  15.6251815652174 10.33203125  15.0886548347826 10.33203125  C 14.5521282173913 10.33203125  14.1171874434782 9.92978708318182  14.1171874434782 9.43359375  Z M 5.66542119565217 9.43359375  C 5.66542119565217 8.93740041681818  6.10036195826086 8.53515625  6.63688858695652 8.53515625  C 7.17341521565219 8.53515625  7.60835597826087 8.93740041681818  7.60835597826087 9.43359375  C 7.60835597826087 9.92978708318182  7.17341521565219 10.33203125  6.63688858695652 10.33203125  C 6.10036195826086 10.33203125  5.66542119565217 9.92978708318182  5.66542119565217 9.43359375  Z M 9.89130434782609 9.43359375  C 9.89130434782609 8.93740041681818  10.3262451104348 8.53515625  10.8627717391304 8.53515625  C 11.3992983678261 8.53515625  11.8342391304348 8.93740041681818  11.8342391304348 9.43359375  C 11.8342391304348 9.92978708318182  11.3992983678261 10.33203125  10.8627717391304 10.33203125  C 10.3262451104348 10.33203125  9.89130434782609 9.92978708318182  9.89130434782609 9.43359375  Z M 18.3430706521739 9.43359375  C 18.3430706521739 8.93740041681818  18.778011426087 8.53515625  19.3145380434783 8.53515625  C 19.8510646608696 8.53515625  20.2860054347826 8.93740041681818  20.2860054347826 9.43359375  C 20.2860054347826 9.92978708318182  19.8510646608696 10.33203125  19.3145380434783 10.33203125  C 18.778011426087 10.33203125  18.3430706521739 9.92978708318182  18.3430706521739 9.43359375  Z M 18.5859374434783 15.72265625  C 18.5859374434783 15.2264492318182  19.0208634086956 14.82421875  19.5574048347826 14.82421875  C 20.093946373913 14.82421875  20.5288722260869 15.2264492318182  20.5288722260869 15.72265625  L 20.5288722260869 16.6660155727273  L 20.9660326086957 16.6660155727273  C 21.5025740347826 16.6660155727273  21.9375 17.0682460545455  21.9375 17.5644530727273  C 21.9375 18.0606601954545  21.5025740347826 18.4628905727273  20.9660326086957 18.4628905727273  L 19.5574048347826 18.4628905727273  C 19.0208634086956 18.4628905727273  18.5859374434783 18.0606601954545  18.5859374434783 17.5644530727273  L 18.5859374434783 15.72265625  Z " fill-rule="nonzero" fill="#8e8e93" stroke="none" transform="matrix(1 0 0 1 145 771 )" />
  </g>
</svg>